Coordinates
version=1
nRows=16
nColumns=36
inDegrees=yes

Units are S.I. units (second, meters, Newtons, ...)
If the header above contains a line with 'inDegrees', this indicates whether rotational values are in degrees (yes) or radians (no).

endheader
time	pelvis_tilt	pelvis_list	pelvis_rotation	pelvis_tx	pelvis_ty	pelvis_tz	hip_flexion_r	hip_adduction_r	hip_rotation_r	knee_angle_r	knee_angle_r_beta	ankle_angle_r	subtalar_angle_r	mtp_angle_r	hip_flexion_l	hip_adduction_l	hip_rotation_l	knee_angle_l	knee_angle_l_beta	ankle_angle_l	subtalar_angle_l	mtp_angle_l	lumbar_extension	lumbar_bending	lumbar_rotation	arm_flex_r	arm_add_r	arm_rot_r	elbow_flex_r	pro_sup_r	arm_flex_l	arm_add_l	arm_rot_l	elbow_flex_l	pro_sup_l
      2.23333330	     -5.43232493	      3.43413372	    -10.13540519	      0.09460225	      1.19541047	      0.13383861	      2.50214684	      0.48915307	     -7.29352020	      1.54595956	      0.02698208	      8.43111434	     -7.53053800	     -7.49999985	      3.40922869	     -2.00309449	     -7.14479837	      5.76901446	      0.10068830	      6.08863672	     -0.70292560	     -7.49999985	      6.18762525	     -1.65465344	      0.04401702	      3.05790760	     -7.74492840	     28.38450061	     28.40475479	     69.56859453	     -0.01039810	     -7.07608915	     18.47703107	     25.49139439	     62.27008575
      2.25000000	     -5.45830828	      3.43792249	    -10.12049094	      0.09296619	      1.19841498	      0.13328801	      2.56269836	      0.49718338	     -7.60354682	      1.47885834	      0.02581095	      8.27824728	     -7.50382123	     -7.49999985	      3.43655846	     -1.98144740	     -7.17134564	      5.56232689	      0.09708092	      6.05088222	     -0.52201498	     -7.49999985	      6.13218390	     -1.64962597	      0.06469114	      3.26890445	     -7.66878068	     29.26543834	     27.90760545	     70.50687959	      0.23051155	     -6.95352732	     19.99572460	     24.98556870	     62.62497241
      2.26666670	     -5.26432628	      3.40975536	    -10.03005007	      0.09332047	      1.20086121	      0.13303120	      2.36754269	      0.48340920	     -7.71668168	      1.44836566	      0.02527875	      8.23736809	     -7.19461769	     -7.49999986	      3.14780035	     -1.94129158	     -7.12135956	      5.28210751	      0.09219017	      5.84029688	     -0.41043714	     -7.49999986	      5.77707745	     -1.67686521	      0.09814791	      3.20882001	     -7.51073107	     29.23502324	     27.81658015	     70.10582878	      0.46528405	     -6.87226269	     20.91940540	     24.89670636	     62.44378549
      2.28333330	     -5.25308276	      3.36379417	     -9.96747002	      0.09013793	      1.19732922	      0.13104164	      2.51407824	      0.48446697	     -7.79441674	      1.54282523	      0.02692738	      8.41206858	     -6.92343219	     -7.49999986	      3.14986949	     -1.92890959	     -7.23246025	      5.17755459	      0.09036537	      6.04412680	     -0.07235115	     -7.49999986	      5.53138481	     -1.60941151	      0.02810059	      3.25644092	     -7.37566354	     28.98527828	     27.68882994	     69.97497101	      0.70258795	     -6.69030136	     20.88392646	     24.82720665	     62.39827538
      2.30000000	     -5.02222399	      3.27522749	     -9.82890678	      0.09073486	      1.19988601	      0.13024503	      2.37303358	      0.47699547	     -7.76578453	      1.55435926	      0.02712869	      8.68288294	     -6.46653293	     -7.49999986	      2.87558723	     -1.90147084	     -7.26566790	      4.95946587	      0.08655901	      6.15122442	      0.27644464	     -7.49999986	      4.98164405	     -1.52385981	     -0.07862664	      3.22309058	     -7.36734400	     29.01695784	     27.94420885	     69.21332038	      0.89364743	     -6.71792639	     21.27023184	     25.25846351	     62.24307304
      2.31666670	     -4.92174247	      3.22776726	     -9.71258068	      0.08832540	      1.20009388	      0.12907171	      2.43191127	      0.41134218	     -7.85052319	      1.69375654	      0.02956163	      8.98731440	     -5.98500048	     -7.49999986	      2.79862782	     -1.83580988	     -7.13853366	      4.78318135	      0.08348226	      6.18748919	      0.25118795	     -7.49999986	      4.59952669	     -1.43700516	     -0.19223775	      3.26648253	     -7.34728639	     29.13638874	     27.94028060	     68.59677148	      1.22709399	     -6.74345530	     21.73036178	     25.46098277	     62.14539421
      2.33333330	     -4.99854184	      3.20447411	     -9.65086833	      0.08905709	      1.19863759	      0.12899221	      2.71945353	      0.38196496	     -7.47535898	      1.88396424	      0.03288138	      9.20401659	     -5.96830551	     -7.49999987	      2.95634421	     -1.82062903	     -7.20294385	      4.77877862	      0.08340542	      6.40939513	      0.46170591	     -7.49999987	      4.56781231	     -1.33313100	     -0.12169682	      3.32783497	     -7.32942680	     30.03021231	     27.43720710	     69.27650450	      1.65927711	     -6.89148797	     23.64650359	     25.18976381	     62.63290451
      2.35000000	     -4.73458328	      3.12977203	     -9.53768045	      0.08977317	      1.19917046	      0.12830254	      2.47666199	      0.33860646	     -7.52399046	      1.90753977	      0.03329285	      9.05530302	     -6.01930165	     -7.49999987	      2.67603395	     -1.79959816	     -7.29103344	      4.67177922	      0.08153793	      6.42450328	      0.64165090	     -7.49999987	      4.01065344	     -1.21495575	     -0.18135752	      3.13049508	     -7.36027626	     29.81859238	     27.80826616	     68.65738898	      1.71552571	     -6.96144271	     23.69462820	     25.74315807	     62.41263300
      2.36666670	     -4.73909480	      3.10242347	     -9.49459631	      0.08958543	      1.19520275	      0.12792801	      2.61229320	      0.29450096	     -7.42479288	      2.10374646	      0.03671730	      9.30359878	     -6.02032111	     -7.49999987	      2.69390581	     -1.77403074	     -7.17943396	      4.67063685	      0.08151799	      6.65252621	      0.53005332	     -7.49999987	      3.88625826	     -1.08972054	     -0.08586042	      2.95467706	     -7.38084857	     29.80822549	     27.63457765	     69.04681056	      1.82081436	     -7.03589762	     24.41300866	     25.91968029	     62.70690168
      2.38333330	     -4.66759913	      3.05019068	     -9.46483788	      0.08971376	      1.19321404	      0.12750747	      2.61024684	      0.28039287	     -7.46053708	      2.24434706	      0.03917125	      9.38674833	     -6.14320309	     -7.49999987	      2.66146288	     -1.80003517	     -7.27380114	      4.70663495	      0.08214628	      6.90016229	      0.72433615	     -7.49999987	      3.71035758	     -0.97728542	     -0.02026275	      2.70232565	     -7.42102891	     29.77845845	     27.74486230	     68.96568254	      1.85539990	     -7.09002655	     24.67907042	     26.19715129	     62.69810895
      2.40000000	     -4.60441550	      3.05000009	     -9.51359139	      0.08926727	      1.19505786	      0.12738544	      2.64023558	      0.21354596	     -7.49634961	      2.44465150	      0.04266722	      9.43745247	     -6.33575036	     -7.49999987	      2.62880032	     -1.78659034	     -7.32279434	      4.81584413	      0.08405234	      7.04816964	      0.75744391	     -7.49999987	      3.57986968	     -0.88841850	      0.11539412	      2.54930943	     -7.50029286	     29.95665449	     27.76886894	     68.86122596	      1.85564255	     -7.21594975	     25.13774860	     26.45029662	     62.71006024
      2.41666670	     -4.62105472	      3.05508959	     -9.43378556	      0.08788174	      1.19547634	      0.12701880	      2.76422352	      0.16635525	     -7.98477000	      2.63696138	      0.04602366	      9.72917088	     -5.96261320	     -7.49999987	      2.74253393	     -1.76765194	     -6.96785200	      4.96517438	      0.08665864	      6.99425338	      0.30855774	     -7.49999987	      3.49584607	     -0.79665707	      0.09200000	      2.44521249	     -7.47597391	     29.82089433	     27.68261005	     68.07393336	      1.85344351	     -7.24818449	     25.02224026	     26.49995856	     62.41982042
      2.43333330	     -4.46376079	      3.05065329	     -9.56510668	      0.08710282	      1.19292772	      0.12702577	      2.72047361	      0.12796144	     -7.76587731	      2.78136446	      0.04854397	      9.78043199	     -6.35443064	     -7.49999987	      2.63485319	     -1.76396849	     -7.11695439	      5.09428717	      0.08891208	      7.13938957	      0.34456833	     -7.49999987	      3.12778826	     -0.73740662	      0.29765765	      2.25037271	     -7.63980539	     29.73866013	     28.21866345	     67.61157179	      1.79156378	     -7.46040920	     25.08847180	     27.17809511	     62.32256179
      2.45000000	     -4.64464400	      3.11003598	     -9.63916534	      0.08426589	      1.18589171	      0.12620930	      3.18067244	      0.07965232	     -7.69150131	      3.10416361	      0.05417788	      9.84382687	     -6.90615664	     -7.49999987	      3.09835996	     -1.75811757	     -7.18321837	      5.47312944	      0.09552413	      7.51252050	      0.27750197	     -7.49999987	      3.24573443	     -0.68402921	      0.44293845	      2.36681507	     -7.74218159	     30.21185300	     27.88543931	     68.29523141	      2.04879266	     -7.64720687	     26.05508742	     27.06315725	     62.82808416
      2.46666670	     -4.79134522	      3.11515618	     -9.73723294	      0.08348170	      1.18194501	      0.12569507	      3.63988940	      0.08370954	     -7.68334539	      3.51727210	      0.06138798	     10.06725580	     -7.47027265	     -7.49999987	      3.53095660	     -1.79946247	     -7.06160040	      5.83231821	      0.10179316	      7.78829974	     -0.07777661	     -7.49999987	      3.26369997	     -0.58632147	      0.59350508	      2.34750992	     -7.85846736	     29.86102492	     27.97712879	     68.64926155	      2.13510072	     -7.78794264	     26.02011545	     27.20182568	     63.05271921
      2.48333330	     -4.90610004	      3.14646869	     -9.75188832	      0.07898950	      1.18042811	      0.12357557	      4.07199285	      0.03933108	     -7.69330518	      3.85719523	      0.06732076	     10.38773485	     -7.84241223	     -7.49999987	      4.04168291	     -1.79127996	     -6.99707989	      6.22555485	      0.10865643	      8.03621863	     -0.37205296	     -7.49999987	      3.06232060	     -0.51439525	      0.65141643	      2.65421601	     -8.06239892	     29.86932067	     28.03845709	     68.73376063	      2.40693511	     -7.85879426	     26.09079141	     27.28532633	     63.09796875
